<svg width="203" height="56" viewBox="0 0 203 56" fill="none" xmlns="http://www.w3.org/2000/svg">
<path d="M60.1014 43.8883L11.1014 54.0331C10.791 54.0974 10.5 53.8604 10.5 53.5435L10.5 2.49103C10.5 2.17133 10.7959 1.93376 11.108 2.00284L60.108 12.8473C60.337 12.898 60.5 13.101 60.5 13.3355L60.5 43.3987C60.5 43.6358 60.3335 43.8402 60.1014 43.8883Z" stroke="#CE318F" stroke-width="3"/>
<path d="M0 12.6013C0 11.653 0.665933 10.8351 1.59452 10.6428L50.5945 0.498023C51.8358 0.24103 53 1.18888 53 2.45649V53.509C53 54.7878 51.8164 55.7381 50.5678 55.4617L1.56783 44.6173C0.651943 44.4146 0 43.6026 0 42.6645V12.6013Z" fill="#F2E142"/>
<path d="M12 3.02932L12 53.0252L9.00001 53.0252L9.00001 3.02932L12 3.02932Z" fill="#CE318F"/>
<path d="M80.1477 37.9026H83.1326V25.609C83.1326 22.9783 85.2068 21.0558 88.0399 21.0558C88.8367 21.0558 89.6588 21.2076 89.8612 21.2582V18.2227C89.5197 18.1974 88.7355 18.1721 88.2929 18.1721C85.9657 18.1721 83.942 19.4875 83.2338 21.4099H83.0314V18.4757H80.1477V37.9026Z" fill="white"/>
<path d="M100.241 38.3074C104.187 38.3074 107.071 36.3343 107.981 33.4L105.098 32.5906C104.339 34.6142 102.581 35.626 100.241 35.626C96.7375 35.626 94.3218 33.3621 94.1827 29.201H108.285V27.9362C108.285 20.7017 103.985 18.2227 99.9374 18.2227C94.6759 18.2227 91.1852 22.3712 91.1852 28.3409C91.1852 34.3107 94.6254 38.3074 100.241 38.3074ZM94.1827 26.6208C94.385 23.598 96.5225 20.904 99.9374 20.904C103.175 20.904 105.249 23.3324 105.249 26.6208H94.1827Z" fill="white"/>
<path d="M127.999 18.4757H124.761L119.398 33.9565H119.196L113.833 18.4757H110.595L117.779 37.9026H120.815L127.999 18.4757Z" fill="white"/>
<path d="M138.676 38.3074C142.622 38.3074 145.506 36.3343 146.416 33.4L143.532 32.5906C142.774 34.6142 141.016 35.626 138.676 35.626C135.172 35.626 132.757 33.3621 132.617 29.201H146.72V27.9362C146.72 20.7017 142.419 18.2227 138.372 18.2227C133.111 18.2227 129.62 22.3712 129.62 28.3409C129.62 34.3107 133.06 38.3074 138.676 38.3074ZM132.617 26.6208C132.82 23.598 134.957 20.904 138.372 20.904C141.61 20.904 143.684 23.3324 143.684 26.6208H132.617Z" fill="white"/>
<path d="M156.265 38.3579C159.654 38.3579 161.425 36.5367 162.032 35.2719H162.184V37.9026H165.169V25.1031C165.169 18.931 160.464 18.2227 157.985 18.2227C155.051 18.2227 151.712 19.2345 150.194 22.7759L153.027 23.7877C153.685 22.3712 155.24 20.8534 158.086 20.8534C160.831 20.8534 162.184 22.3079 162.184 24.7995V24.9007C162.184 26.3426 160.717 26.2161 157.175 26.6714C153.571 27.1394 149.637 27.9362 149.637 32.3882C149.637 36.1825 152.572 38.3579 156.265 38.3579ZM156.72 35.6766C154.342 35.6766 152.622 34.6142 152.622 32.54C152.622 30.2634 154.696 29.5551 157.024 29.2516C158.288 29.0998 161.678 28.7456 162.184 28.1386V30.8705C162.184 33.2988 160.261 35.6766 156.72 35.6766Z" fill="white"/>
<path d="M172.889 12H169.904V37.9026H172.889V12Z" fill="white"/>
<path d="M188.103 24.0923V31.8909C188.103 32.6291 187.774 33.0456 187.034 33.0456H186.808V34.0866H187.055C188.576 34.0866 189.316 33.2348 189.316 31.8909V24.0923H188.103ZM188.7 22.8809C189.172 22.8809 189.563 22.5402 189.563 22.1237C189.563 21.7073 189.172 21.3666 188.7 21.3666C188.227 21.3666 187.836 21.7073 187.836 22.1237C187.836 22.5402 188.227 22.8809 188.7 22.8809Z" fill="white"/>
<path d="M196.84 25.7202C196.46 24.6886 195.607 23.9977 194.044 23.9977C192.379 23.9977 191.146 24.8684 191.146 26.0988C191.146 27.102 191.793 27.7739 193.243 28.0863L194.558 28.3702C195.355 28.5405 195.73 28.8907 195.73 29.3923C195.73 30.017 195.011 30.5281 193.88 30.5281C192.888 30.5281 192.266 30.1353 192.05 29.3545L190.899 29.6195C191.182 30.8546 192.287 31.5123 193.9 31.5123C195.735 31.5123 196.984 30.5896 196.984 29.3355C196.984 28.3229 196.295 27.684 194.887 27.367L193.715 27.102C192.78 26.889 192.359 26.6004 192.359 26.042C192.359 25.4173 193.078 24.963 194.044 24.963C195.103 24.963 195.54 25.5025 195.751 26.0041L196.84 25.7202Z" fill="white"/>
<rect x="182.22" y="18.0506" width="19.3521" height="19.3521" rx="1.5" stroke="white"/>
</svg>
