<svg width="62" height="56" viewBox="0 0 62 56" fill="none" xmlns="http://www.w3.org/2000/svg">
<path d="M60.5 43.3987C60.5 43.6358 60.3335 43.8402 60.1014 43.8883L11.1014 54.0331C10.791 54.0974 10.5 53.8604 10.5 53.5435L10.5 2.49103C10.5 2.17134 10.7959 1.93376 11.108 2.00285L60.108 12.8473C60.337 12.898 60.5 13.101 60.5 13.3355L60.5 43.3987Z" stroke="#CE318F" stroke-width="3"/>
<path d="M0 12.6013C0 11.653 0.665933 10.8351 1.59452 10.6428L50.5945 0.498023C51.8358 0.24103 53 1.18888 53 2.45649V53.509C53 54.7878 51.8164 55.7381 50.5678 55.4617L1.56783 44.6173C0.651943 44.4146 0 43.6026 0 42.6645V12.6013Z" fill="#F2E142"/>
<path d="M12 3.02932L12 53.0252L9.00001 53.0252L9.00001 3.02932L12 3.02932Z" fill="#CE318F"/>
</svg>
