<svg width="189" height="56" viewBox="0 0 189 56" fill="none" xmlns="http://www.w3.org/2000/svg">
<path fill-rule="evenodd" clip-rule="evenodd" d="M59 42.5845L59 14.1384L12 3.73654L12 52.3153L59 42.5845ZM60.4055 45.3572C61.3341 45.1649 62 44.347 62 43.3987L62 13.3355C62 12.3975 61.3481 11.5855 60.4322 11.3828L11.4322 0.538285C10.1836 0.261956 9 1.21225 9 2.49103L8.99999 53.5435C8.99999 54.8111 10.1642 55.759 11.4055 55.502L60.4055 45.3572Z" fill="#D53F8C"/>
<path d="M0 12.6013C0 11.653 0.665933 10.8351 1.59452 10.6428L50.5945 0.498019C51.8358 0.241027 53 1.18887 53 2.45649V53.509C53 54.7878 51.8164 55.738 50.5678 55.4617L1.56783 44.6173C0.651943 44.4146 0 43.6025 0 42.6645V12.6013Z" fill="#F2E142"/>
<path d="M12 3.02932L12 53.0252L9.00001 53.0252L9.00001 3.02932L12 3.02932Z" fill="#D53F8C"/>
<path d="M77.1477 37.9026H80.1325V25.609C80.1325 22.9783 82.2067 21.0558 85.0398 21.0558C85.8366 21.0558 86.6586 21.2076 86.861 21.2582V18.2227C86.5195 18.1974 85.7354 18.1721 85.2927 18.1721C82.9656 18.1721 80.942 19.4875 80.2337 21.4099H80.0313V18.4757H77.1477V37.9026Z" fill="black"/>
<path d="M96.2406 38.3074C100.187 38.3074 103.07 36.3343 103.981 33.4L101.097 32.5906C100.338 34.6142 98.5804 35.626 96.2406 35.626C92.7372 35.626 90.3216 33.3621 90.1824 29.201H104.284V27.9362C104.284 20.7017 99.9843 18.2227 95.9371 18.2227C90.6757 18.2227 87.185 22.3712 87.185 28.3409C87.185 34.3107 90.6251 38.3074 96.2406 38.3074ZM90.1824 26.6208C90.3848 23.598 92.5222 20.904 95.9371 20.904C99.1748 20.904 101.249 23.3324 101.249 26.6208H90.1824Z" fill="black"/>
<path d="M122.998 18.4757H119.76L114.398 33.9565H114.195L108.833 18.4757H105.595L112.779 37.9026H115.814L122.998 18.4757Z" fill="black"/>
<path d="M132.675 38.3074C136.621 38.3074 139.504 36.3343 140.415 33.4L137.531 32.5906C136.772 34.6142 135.014 35.626 132.675 35.626C129.171 35.626 126.756 33.3621 126.617 29.201H140.719V27.9362C140.719 20.7017 136.418 18.2227 132.371 18.2227C127.11 18.2227 123.619 22.3712 123.619 28.3409C123.619 34.3107 127.059 38.3074 132.675 38.3074ZM126.617 26.6208C126.819 23.598 128.956 20.904 132.371 20.904C135.609 20.904 137.683 23.3324 137.683 26.6208H126.617Z" fill="black"/>
<path d="M149.263 38.3579C152.653 38.3579 154.424 36.5367 155.031 35.2719H155.182V37.9026H158.167V25.1031C158.167 18.931 153.462 18.2227 150.983 18.2227C148.049 18.2227 144.71 19.2345 143.193 22.7759L146.026 23.7877C146.683 22.3712 148.239 20.8534 151.085 20.8534C153.829 20.8534 155.182 22.3079 155.182 24.7995V24.9007C155.182 26.3426 153.715 26.2161 150.174 26.6714C146.569 27.1394 142.636 27.9362 142.636 32.3882C142.636 36.1825 145.57 38.3579 149.263 38.3579ZM149.719 35.6766C147.341 35.6766 145.621 34.6142 145.621 32.54C145.621 30.2634 147.695 29.5551 150.022 29.2516C151.287 29.0998 154.677 28.7456 155.182 28.1385V30.8705C155.182 33.2988 153.26 35.6766 149.719 35.6766Z" fill="black"/>
<path d="M164.888 12H161.903V37.9026H164.888V12Z" fill="black"/>
<path d="M175.271 24V32.5833C175.271 33.3958 174.948 33.8542 174.22 33.8542H173.998V35H174.241C175.736 35 176.463 34.0625 176.463 32.5833V24H175.271ZM175.857 22.6667C176.321 22.6667 176.705 22.2917 176.705 21.8333C176.705 21.375 176.321 21 175.857 21C175.392 21 175.008 21.375 175.008 21.8333C175.008 22.2917 175.392 22.6667 175.857 22.6667Z" fill="black"/>
<path d="M183.857 25.7917C183.483 24.6562 182.644 23.8958 181.109 23.8958C179.473 23.8958 178.261 24.8542 178.261 26.2083C178.261 27.3125 178.897 28.0521 180.321 28.3958L181.614 28.7083C182.397 28.8958 182.766 29.2812 182.766 29.8333C182.766 30.5208 182.059 31.0833 180.947 31.0833C179.973 31.0833 179.362 30.651 179.149 29.7917L178.018 30.0833C178.296 31.4427 179.382 32.1667 180.968 32.1667C182.771 32.1667 183.998 31.151 183.998 29.7708C183.998 28.6562 183.321 27.9531 181.937 27.6042L180.786 27.3125C179.867 27.0781 179.452 26.7604 179.452 26.1458C179.452 25.4583 180.16 24.9583 181.109 24.9583C182.149 24.9583 182.579 25.5521 182.786 26.1042L183.857 25.7917Z" fill="black"/>
<path fill-rule="evenodd" clip-rule="evenodd" d="M186.998 19H170.998C170.446 19 169.998 19.4477 169.998 20V36C169.998 36.5523 170.446 37 170.998 37H186.998C187.55 37 187.998 36.5523 187.998 36V20C187.998 19.4477 187.55 19 186.998 19ZM170.998 18C169.894 18 168.998 18.8954 168.998 20V36C168.998 37.1046 169.894 38 170.998 38H186.998C188.102 38 188.998 37.1046 188.998 36V20C188.998 18.8954 188.102 18 186.998 18H170.998Z" fill="black"/>
</svg>
