<svg width="62" height="56" viewBox="0 0 62 56" fill="none" xmlns="http://www.w3.org/2000/svg">
<path fill-rule="evenodd" clip-rule="evenodd" d="M59 42.5845L59 14.1384L12 3.73654L12 52.3153L59 42.5845ZM60.4055 45.3572C61.3341 45.1649 62 44.347 62 43.3987L62 13.3355C62 12.3975 61.3481 11.5855 60.4322 11.3828L11.4322 0.538285C10.1836 0.261956 9 1.21225 9 2.49103L8.99999 53.5435C8.99999 54.8111 10.1642 55.759 11.4055 55.502L60.4055 45.3572Z" fill="#D53F8C"/>
<path d="M0 12.6013C0 11.653 0.665933 10.8351 1.59452 10.6428L50.5945 0.498019C51.8358 0.241027 53 1.18887 53 2.45649V53.509C53 54.7878 51.8164 55.738 50.5678 55.4617L1.56783 44.6173C0.651943 44.4146 0 43.6025 0 42.6645V12.6013Z" fill="#F2E142"/>
<path d="M12 3.02932L12 53.0252L9.00001 53.0252L9.00001 3.02932L12 3.02932Z" fill="#D53F8C"/>
</svg>
