<svg width="1200" height="675" viewBox="0 0 1200 675" fill="none" xmlns="http://www.w3.org/2000/svg">
<rect width="1200" height="675" fill="#0E0E0E"/>
<path fill-rule="evenodd" clip-rule="evenodd" d="M421.107 415.443L421.107 272.197L184.429 219.816L184.429 464.445L421.107 415.443ZM428.185 429.406C432.861 428.437 436.214 424.319 436.214 419.543L436.214 268.154C436.214 263.43 432.931 259.341 428.319 258.32L181.569 203.711C175.282 202.319 169.321 207.104 169.321 213.544L169.321 470.63C169.321 477.013 175.184 481.786 181.435 480.492L428.185 429.406Z" fill="#D53F8C"/>
<path d="M124 264.457C124 259.681 127.353 255.562 132.03 254.594L378.78 203.508C385.03 202.214 390.893 206.987 390.893 213.37V470.456C390.893 476.895 384.933 481.681 378.645 480.289L131.895 425.68C127.283 424.659 124 420.57 124 415.846V264.457Z" fill="#F2E142"/>
<path d="M184.429 216.255L184.429 468.02L169.321 468.02L169.321 216.255L184.429 216.255Z" fill="#D53F8C"/>
<path d="M512.494 391.867H527.524V329.96C527.524 316.712 537.97 307.031 552.236 307.031C556.248 307.031 560.388 307.795 561.407 308.05V292.764C559.688 292.637 555.739 292.51 553.51 292.51C541.791 292.51 531.601 299.133 528.034 308.814H527.015V294.038H512.494V391.867Z" fill="white"/>
<path d="M608.64 393.905C628.511 393.905 643.032 383.969 647.618 369.193L633.097 365.117C629.275 375.307 620.423 380.403 608.64 380.403C590.998 380.403 578.834 369.002 578.133 348.048H649.147V341.679C649.147 305.248 627.492 292.764 607.112 292.764C580.617 292.764 563.039 313.655 563.039 343.717C563.039 373.779 580.362 393.905 608.64 393.905ZM578.133 335.055C579.152 319.833 589.915 306.267 607.112 306.267C623.416 306.267 633.861 318.495 633.861 335.055H578.133Z" fill="white"/>
<path d="M743.382 294.038H727.078L700.073 371.995H699.054L672.05 294.038H655.746L691.921 391.867H707.207L743.382 294.038Z" fill="white"/>
<path d="M792.112 393.905C811.983 393.905 826.504 383.969 831.09 369.193L816.569 365.117C812.747 375.307 803.894 380.403 792.112 380.403C774.47 380.403 762.305 369.002 761.605 348.048H832.618V341.679C832.618 305.248 810.964 292.764 790.583 292.764C764.089 292.764 746.51 313.655 746.51 343.717C746.51 373.779 763.834 393.905 792.112 393.905ZM761.605 335.055C762.624 319.833 773.387 306.267 790.583 306.267C806.888 306.267 817.333 318.495 817.333 335.055H761.605Z" fill="white"/>
<path d="M875.648 394.16C892.716 394.16 901.633 384.988 904.69 378.619H905.454V391.867H920.485V327.412C920.485 296.331 896.793 292.764 884.309 292.764C869.534 292.764 852.72 297.86 845.077 315.693L859.343 320.788C862.655 313.655 870.489 306.012 884.819 306.012C898.64 306.012 905.454 313.336 905.454 325.883V326.393C905.454 333.654 898.066 333.017 880.233 335.31C862.082 337.666 842.274 341.679 842.274 364.098C842.274 383.205 857.05 394.16 875.648 394.16ZM877.94 380.657C865.967 380.657 857.305 375.307 857.305 364.862C857.305 353.398 867.75 349.831 879.469 348.302C885.838 347.538 902.907 345.755 905.454 342.698V356.455C905.454 368.683 895.774 380.657 877.94 380.657Z" fill="white"/>
<path d="M954.327 261.429H939.297V391.867H954.327V261.429Z" fill="white"/>
<path d="M1006.61 321.857V365.08C1006.61 369.172 1004.99 371.48 1001.32 371.48H1000.21V377.25H1001.43C1008.95 377.25 1012.62 372.529 1012.62 365.08V321.857H1006.61ZM1009.56 315.143C1011.9 315.143 1013.84 313.254 1013.84 310.946C1013.84 308.638 1011.9 306.75 1009.56 306.75C1007.22 306.75 1005.29 308.638 1005.29 310.946C1005.29 313.254 1007.22 315.143 1009.56 315.143Z" fill="white"/>
<path d="M1049.85 330.879C1047.97 325.162 1043.75 321.333 1036.01 321.333C1027.77 321.333 1021.67 326.158 1021.67 332.978C1021.67 338.538 1024.87 342.262 1032.05 343.993L1038.56 345.567C1042.5 346.511 1044.36 348.452 1044.36 351.232C1044.36 354.694 1040.79 357.527 1035.2 357.527C1030.29 357.527 1027.21 355.35 1026.15 351.022L1020.45 352.491C1021.85 359.336 1027.32 362.982 1035.3 362.982C1044.38 362.982 1050.56 357.868 1050.56 350.917C1050.56 345.305 1047.15 341.764 1040.18 340.007L1034.39 338.538C1029.76 337.358 1027.67 335.758 1027.67 332.663C1027.67 329.201 1031.23 326.683 1036.01 326.683C1041.25 326.683 1043.41 329.673 1044.46 332.453L1049.85 330.879Z" fill="white"/>
<path fill-rule="evenodd" clip-rule="evenodd" d="M1065.67 296.679H985.098C982.317 296.679 980.063 298.933 980.063 301.714V382.286C980.063 385.067 982.317 387.321 985.098 387.321H1065.67C1068.45 387.321 1070.7 385.067 1070.7 382.286V301.714C1070.7 298.933 1068.45 296.679 1065.67 296.679ZM985.098 291.643C979.536 291.643 975.027 296.152 975.027 301.714V382.286C975.027 387.848 979.536 392.357 985.098 392.357H1065.67C1071.23 392.357 1075.74 387.848 1075.74 382.286V301.714C1075.74 296.152 1071.23 291.643 1065.67 291.643H985.098Z" fill="white"/>
<path d="M521.769 182.96C521.769 182.053 521.875 181.44 522.089 181.12C522.355 180.747 522.809 180.56 523.449 180.56C524.142 180.56 525.315 181.28 526.969 182.72C528.622 184.16 529.502 185.44 529.609 186.56C529.822 188.48 530.835 191.893 532.649 196.8C534.462 201.653 536.542 206.587 538.889 211.6C541.875 208.08 545.635 203.413 550.169 197.6C554.702 191.733 558.062 187.573 560.249 185.12C562.435 182.667 564.009 181.44 564.969 181.44C565.929 181.44 566.942 181.973 568.009 183.04C569.075 184.107 569.609 185.12 569.609 186.08C569.609 187.04 569.502 188.133 569.289 189.36C569.075 190.587 568.702 192.213 568.169 194.24C567.689 196.213 567.235 197.947 566.809 199.44C566.435 200.88 565.795 203.147 564.889 206.24C563.982 209.333 563.289 211.813 562.809 213.68C562.329 215.493 561.769 217.733 561.129 220.4C560.489 223.013 559.955 225.173 559.529 226.88C559.155 228.533 558.755 230.16 558.329 231.76C557.529 234.853 556.755 236.4 556.009 236.4C555.315 236.4 554.622 235.76 553.929 234.48C553.235 233.2 552.889 231.493 552.889 229.36C552.889 227.173 553.795 222.213 555.609 214.48C557.475 206.747 559.475 199.973 561.609 194.16C551.795 206.427 545.742 213.76 543.449 216.16C541.209 218.56 539.342 219.76 537.849 219.76C536.409 219.76 535.049 218.933 533.769 217.28C531.849 214.507 529.262 207.947 526.009 197.6C525.102 203.2 524.089 208 522.969 212C521.902 215.947 521.182 218.587 520.809 219.92C520.489 221.2 520.195 222.267 519.929 223.12C519.715 223.973 519.449 224.987 519.129 226.16C518.809 227.28 518.515 228.213 518.249 228.96C518.035 229.707 517.795 230.533 517.529 231.44C517.262 232.293 517.022 232.987 516.809 233.52C516.649 234.053 516.462 234.56 516.249 235.04C515.822 235.947 515.502 236.4 515.289 236.4C514.649 236.4 513.849 235.707 512.889 234.32C511.929 232.933 511.449 231.6 511.449 230.32C511.449 229.04 513.155 221.68 516.569 208.24C520.035 194.8 521.769 186.373 521.769 182.96ZM593.854 197.12C596.254 197.12 598.467 198.347 600.494 200.8C602.52 203.2 603.534 205.387 603.534 207.36C603.534 209.28 602.867 211.253 601.534 213.28C602.174 214.08 602.494 214.773 602.494 215.36C602.494 216.853 602.147 219.413 601.454 223.04C600.814 226.667 600.414 229.04 600.254 230.16C600.147 231.28 600.04 232.187 599.934 232.88C599.827 233.52 599.694 234.16 599.534 234.8C599.32 236.133 598.84 236.8 598.094 236.8C597.134 236.8 596.334 235.973 595.694 234.32C595.107 232.613 594.76 230.427 594.654 227.76C589.907 233.787 585.507 236.8 581.454 236.8C579 236.8 576.574 235.76 574.174 233.68C571.827 231.547 570.654 229.36 570.654 227.12C570.654 223.92 571.827 219.973 574.174 215.28C576.52 210.533 579.56 206.32 583.294 202.64C587.027 198.96 590.547 197.12 593.854 197.12ZM597.534 211.2C597.534 206.24 596.547 203.76 594.574 203.76C592.494 203.76 590.067 205.253 587.294 208.24C584.52 211.173 582.174 214.507 580.254 218.24C578.334 221.973 577.374 224.933 577.374 227.12C577.374 228.027 577.747 228.773 578.494 229.36C579.24 229.893 580.12 230.16 581.134 230.16C583.64 230.16 586.467 228.48 589.614 225.12C592.76 221.707 594.947 217.573 596.174 212.72C596.334 211.92 596.787 211.44 597.534 211.28V211.2ZM632.954 197.12C634.767 197.12 636.474 198.133 638.074 200.16C639.674 202.133 640.474 203.867 640.474 205.36C640.474 206.267 640.047 206.72 639.194 206.72C638.607 206.72 637.7 206.267 636.474 205.36C635.247 204.4 633.994 203.92 632.714 203.92C631.434 203.92 629.407 204.667 626.634 206.16C623.914 207.653 622.554 209.227 622.554 210.88C622.554 212.107 625.007 214.213 629.914 217.2C631.78 218.373 633.46 219.893 634.954 221.76C636.5 223.573 637.274 225.547 637.274 227.68C637.274 229.76 635.807 231.813 632.874 233.84C629.994 235.813 626.607 236.8 622.714 236.8C618.874 236.8 615.46 235.867 612.474 234C609.54 232.133 608.074 230.373 608.074 228.72C608.074 228.027 608.234 227.493 608.554 227.12C608.927 226.693 609.38 226.48 609.914 226.48C610.447 226.48 611.194 226.827 612.154 227.52C615.034 229.6 618.02 230.64 621.114 230.64C624.26 230.64 626.527 230.293 627.914 229.6C629.3 228.853 629.994 227.893 629.994 226.72C629.994 225.493 629.22 224.213 627.674 222.88C626.127 221.493 624.42 220.267 622.554 219.2C620.74 218.133 619.06 216.827 617.514 215.28C615.967 213.733 615.194 212.16 615.194 210.56C615.194 207.733 617.407 204.8 621.834 201.76C626.314 198.667 630.02 197.12 632.954 197.12ZM653.096 228.8C653.096 229.813 653.683 230.32 654.856 230.32C656.883 230.32 659.336 229.76 662.216 228.64C665.15 227.467 666.776 226.88 667.096 226.88C668.056 226.88 668.536 227.387 668.536 228.4C668.536 229.947 666.936 231.733 663.736 233.76C660.59 235.787 657.71 236.8 655.096 236.8C652.536 236.8 650.403 236.107 648.696 234.72C646.99 233.28 646.136 231.813 646.136 230.32C646.136 228.827 646.456 226.933 647.096 224.64C647.736 222.293 648.643 219.227 649.816 215.44C651.043 211.6 652.003 208.427 652.696 205.92C650.19 206.507 648.51 206.8 647.656 206.8C646.803 206.8 645.95 206.373 645.096 205.52C644.296 204.613 643.896 203.76 643.896 202.96C643.896 201.68 647.363 200.453 654.296 199.28C655.256 194.853 655.736 190.933 655.736 187.52C655.736 185.92 656.27 185.12 657.336 185.12C658.243 185.12 659.363 185.707 660.696 186.88C662.03 188 662.696 189.28 662.696 190.72C662.696 192.16 662.243 194.693 661.336 198.32C664.376 198.053 666.803 197.92 668.616 197.92C671.816 197.92 673.416 198.613 673.416 200C673.416 200.8 672.536 201.467 670.776 202C669.07 202.533 665.443 203.36 659.896 204.48C658.776 208.693 657.363 213.52 655.656 218.96C653.95 224.347 653.096 227.627 653.096 228.8ZM706.994 210.4C706.994 213.227 705.447 215.547 702.354 217.36C699.314 219.12 695.847 220 691.954 220C688.114 220 684.62 219.573 681.474 218.72C680.727 221.067 680.354 223.173 680.354 225.04C680.354 226.853 680.914 228.267 682.034 229.28C683.207 230.293 685.1 230.8 687.714 230.8C690.38 230.8 693.1 230.347 695.874 229.44C698.7 228.48 700.247 228 700.514 228C701.9 228 702.594 228.533 702.594 229.6C702.594 231.04 700.967 232.613 697.714 234.32C694.46 235.973 691.287 236.8 688.194 236.8C684.034 236.8 680.647 235.573 678.034 233.12C675.42 230.613 674.114 227.467 674.114 223.68C674.114 219.893 675.127 215.947 677.154 211.84C679.18 207.68 681.794 204.187 684.994 201.36C688.194 198.533 691.367 197.12 694.514 197.12C697.66 197.12 700.514 198.613 703.074 201.6C705.687 204.587 706.994 207.52 706.994 210.4ZM694.914 203.44C692.94 203.44 690.887 204.48 688.754 206.56C686.62 208.587 684.807 211.12 683.314 214.16C685.447 214.64 687.874 214.88 690.594 214.88C693.314 214.88 695.687 214.453 697.714 213.6C699.74 212.693 700.754 211.52 700.754 210.08C700.754 208.64 700.087 207.173 698.754 205.68C697.474 204.187 696.194 203.44 694.914 203.44ZM715.889 206.88L715.649 200.88C715.649 198.373 716.236 197.12 717.409 197.12C718.423 197.12 719.383 197.787 720.289 199.12C721.249 200.4 721.729 201.947 721.729 203.76C721.729 205.52 721.676 206.853 721.569 207.76C726.209 200.72 730.609 197.2 734.769 197.2C737.383 197.2 738.689 197.84 738.689 199.12C738.689 199.76 738.396 200.347 737.809 200.88C737.223 201.413 736.289 202.027 735.009 202.72C732.183 203.947 729.783 205.84 727.809 208.4C725.889 210.907 724.316 213.76 723.089 216.96C721.863 220.16 720.876 222.853 720.129 225.04C719.436 227.227 718.903 228.933 718.529 230.16C718.156 231.387 717.729 232.587 717.249 233.76C716.396 235.893 715.409 236.96 714.289 236.96C713.383 236.96 712.636 236.453 712.049 235.44C711.516 234.373 711.249 233.36 711.249 232.4C711.249 231.387 711.703 229.413 712.609 226.48C714.796 219.76 715.889 213.227 715.889 206.88ZM747.814 185.76C747.814 184.693 748.24 183.68 749.094 182.72C749.947 181.76 750.8 181.28 751.654 181.28C752.56 181.28 753.627 182.373 754.854 184.56C756.08 186.693 756.694 188.48 756.694 189.92C756.694 190.453 756.454 190.933 755.974 191.36C755.494 191.787 754.987 192 754.454 192C753.174 192 751.734 191.227 750.134 189.68C748.587 188.133 747.814 186.827 747.814 185.76ZM747.414 197.12C748.427 197.12 749.387 197.733 750.294 198.96C751.2 200.187 751.654 201.387 751.654 202.56C751.654 203.733 750.88 207.253 749.334 213.12C747.787 218.933 745.84 225.467 743.494 232.72C742.587 235.387 741.44 236.72 740.054 236.72C739.307 236.72 738.667 236.427 738.134 235.84C737.6 235.2 737.334 234.507 737.334 233.76C737.334 232.96 737.52 231.733 737.894 230.08C738.32 228.373 738.907 226.133 739.654 223.36C740.454 220.533 741.067 218.24 741.494 216.48C741.974 214.72 742.454 212.747 742.934 210.56C743.414 208.32 743.787 206.533 744.054 205.2C744.374 203.813 744.72 202.427 745.094 201.04C745.84 198.427 746.614 197.12 747.414 197.12ZM764.476 222.88C769.596 214.187 773.756 207.733 776.956 203.52C780.21 199.253 782.85 197.12 784.876 197.12C786.956 197.12 788.903 198.213 790.716 200.4C792.583 202.587 793.516 204.907 793.516 207.36C793.516 211.2 792.636 215.893 790.876 221.44C787.676 231.68 784.796 236.8 782.236 236.8C781.063 236.8 780.476 236 780.476 234.4C780.476 233.28 781.036 231.013 782.156 227.6C783.33 224.133 784.396 220.747 785.356 217.44C786.37 214.08 786.876 211.573 786.876 209.92C786.876 208.213 786.61 206.96 786.076 206.16C785.596 205.36 785.09 204.96 784.556 204.96C784.076 204.96 783.57 205.12 783.036 205.44C782.503 205.76 781.89 206.293 781.196 207.04C780.556 207.787 779.943 208.533 779.356 209.28C778.77 209.973 778.023 210.987 777.116 212.32C776.263 213.653 775.543 214.8 774.956 215.76C774.37 216.667 773.516 218 772.396 219.76C771.276 221.52 770.423 222.853 769.836 223.76C769.25 224.667 768.476 225.893 767.516 227.44C766.556 228.987 765.783 230.187 765.196 231.04C764.663 231.893 764.05 232.827 763.356 233.84C762.023 235.813 760.956 236.8 760.156 236.8C759.41 236.8 758.53 236.213 757.516 235.04C756.503 233.813 755.996 232.747 755.996 231.84C755.996 231.573 756.183 230.853 756.556 229.68C757.57 226.587 758.69 222.773 759.916 218.24C761.143 213.653 761.81 208.453 761.916 202.64C762.076 198.747 762.636 196.8 763.596 196.8C764.77 196.8 765.943 197.413 767.116 198.64C768.29 199.867 768.876 201.227 768.876 202.72C768.876 204.16 768.423 206.987 767.516 211.2C766.663 215.36 765.65 219.253 764.476 222.88ZM830.973 215.2C830.973 217.333 830.039 219.76 828.173 222.48C826.733 225.733 825.186 230.427 823.533 236.56C821.879 242.64 820.493 246.987 819.373 249.6C817.133 255.04 813.693 257.76 809.053 257.76C805.266 257.76 802.066 256.72 799.452 254.64C796.892 252.613 795.612 250.587 795.612 248.56C795.612 247.707 795.879 246.853 796.412 246C796.893 245.147 797.399 244.72 797.933 244.72C798.519 244.72 799.159 245.12 799.853 245.92C800.546 246.72 801.186 247.573 801.773 248.48C802.413 249.44 803.346 250.32 804.573 251.12C805.853 251.92 807.079 252.32 808.253 252.32C809.426 252.32 810.306 252.133 810.893 251.76C811.479 251.44 812.039 250.88 812.573 250.08C813.106 249.333 813.559 248.56 813.933 247.76C814.306 247.013 814.706 245.92 815.133 244.48C815.613 243.093 815.986 241.893 816.253 240.88C816.519 239.867 816.893 238.453 817.372 236.64C817.853 234.773 818.253 233.28 818.573 232.16C814.413 235.253 811.026 236.8 808.413 236.8C805.799 236.8 803.533 235.76 801.613 233.68C799.693 231.547 798.733 229.093 798.733 226.32C798.733 223.493 799.773 219.76 801.853 215.12C803.986 210.48 806.839 206.32 810.413 202.64C813.986 198.96 817.479 197.12 820.893 197.12C823.079 197.12 824.919 197.947 826.413 199.6C828.866 202.32 830.093 206.187 830.093 211.2C830.093 211.84 830.066 212.293 830.013 212.56C830.653 213.467 830.973 214.347 830.973 215.2ZM805.213 227.12C805.213 228.027 805.506 228.773 806.093 229.36C806.679 229.893 807.426 230.16 808.333 230.16C810.999 230.16 814.146 228.587 817.773 225.44C821.399 222.24 823.959 218.533 825.453 214.32C825.239 213.627 825.053 212.56 824.893 211.12C824.733 209.68 824.573 208.533 824.413 207.68C824.253 206.827 823.906 205.973 823.373 205.12C822.839 204.213 822.146 203.76 821.293 203.76C819.213 203.76 816.866 205.253 814.253 208.24C811.639 211.227 809.479 214.56 807.773 218.24C806.066 221.92 805.213 224.88 805.213 227.12Z" fill="#D53F8C"/>
</svg>
